<?xml version='1.0' encoding='utf-8'?>
<svg xmlns="http://www.w3.org/2000/svg" enable-background="new 0 0 2679.248 1417.795" version="1.1" viewBox="0 0 2679.248 1417.795">
	<path d="m2619.1 562.43c-0.316-0.259-0.606-0.524-0.881-0.793v1.622c0.29-0.26 0.583-0.533 0.881-0.829z" fill="none"/>
	<path d="m2619.2 562.37c-0.019 0.019-0.038 0.036-0.057 0.055 0.167 0.137 0.337 0.273 0.518 0.406l-0.461-0.461z" fill="none"/>
	<path d="m59.624 931.28c2.074 1.095 2.421 3.458 4.612 4.381 2.652 1.153 6.225 1.269 6.225 4.151 0 4.323-2.767 6.224-4.151 10.375 5.88 3.401 10.606 7.032 10.606 13.834 0 2.133-2.19 2.651-2.997 4.612-1.499 3.516-1.556 5.822-2.767 9.453 0.404 0 0.691 0.231 1.095 0.231 0.922 0 1.441-0.692 2.363-0.692 3.747 0 4.15 4.265 7.148 6.455 2.536 1.844 5.303 1.384 7.148 3.92 2.249 3.112 0.865 7.552 4.381 8.992l0.231 0.922c-2.882 2.882-3.458 5.707-3.458 9.684 0 1.326 1.844 1.211 2.766 2.075 1.384 1.268 1.615 2.766 1.615 4.726 0 1.845 0.576 3.229-0.462 4.727-1.901 2.767-6.341 0.98-7.608 4.15-1.211 3.055-1.094 5.131-1.845 8.301 2.998 2.709 4.554 5.995 8.646 5.995 1.614 0 2.133-2.074 1.96-3.689l0.922-0.46c0.635 0.173 1.152 0.46 1.845 0.46 4.092 0 6.052-2.997 10.144-2.997 2.479 0 2.826 2.94 5.072 3.919 1.672 0.75 3.056 0.059 4.612 0.922 2.479 1.442 2.71 4.209 5.534 4.842 3.171 0.692 5.649-0.807 8.301 0.922 0.865 0.576 0.807 1.845 1.845 1.845 1.902 0 2.997-0.462 4.9-0.462h4.957c2.536 0 2.824 2.998 4.899 4.381 5.188 3.458 7.379 8.301 13.604 8.301 4.092 0 5.533-4.15 9.626-4.15 2.018 0 3.113 0.23 5.13 0.115-1.038 2.249-2.998 3.171-2.998 5.649 0 2.536 3.229 2.479 5.534 3.458 1.902 0.807 1.845 2.998 1.845 5.072 0 2.537-2.939 2.826-4.381 4.842-2.305 3.171-2.998 5.764-2.998 9.684 0 1.326 1.845 1.614 1.845 2.94v8.646c0 2.191 2.826 2.191 4.842 2.939 2.767 1.038 3.689 3.056 6.225 4.381 4.554 2.422 6.801 5.996 11.989 5.996 1.96 0 2.882-1.614 4.842-1.614 1.556 0 2.133 1.614 3.689 1.614 1.211 0 1.672-1.094 2.766-1.614 1.384 2.074 0.693 4.669 2.998 5.533 3.458 1.269 5.938 0.462 9.223 2.076 2.249 1.095 2.133 3.632 4.15 5.072 2.767 1.96 5.995 1.903 7.148 5.073 0.922 2.478-0.346 5.418 2.075 6.455 2.709 1.153 4.669 0.29 7.378 1.384 5.592 2.305 5.649 10.375 11.759 10.375 3.574 0 5.188-2.767 8.761-2.767 2.364 0 3.633 0.922 5.995 0.922 6.341 0 7.725-8.07 14.065-8.07 5.189 0 11.068-2.19 11.068-7.378 0-2.709-2.536-3.747-2.536-6.456 0-1.614 2.305-1.729 2.767-3.229 1.959-6.282 2.305-10.145 3.919-16.601l0.922-0.231c2.249 2.826 5.362 2.019 8.992 2.306 2.133 0.173 2.94 2.075 5.072 2.075 1.729 0 2.536-1.038 4.151-1.615 1.326-0.461 3.458 0.059 3.458-1.383 0-1.901-1.614-2.708-1.614-4.612 0-2.19 0.921-3.343 0.921-5.534 7.263 0 8.301-8.3 11.068-14.987 1.153-2.766 1.153-6.455 4.15-6.455 2.191 0 3.344 1.383 5.534 1.383 1.442 0 1.557-1.268 2.767-2.075 1.788-0.692 1.96-3.228 3.92-3.228 2.709 0 3.17 2.94 5.072 4.841 2.249 2.249 4.496 3.229 5.303 6.456l-0.922 7.378c0.519 3.401 4.381 3.458 7.608 4.381 4.151 1.211 6.284 2.71 10.145 4.612 2.249 1.095 4.438 2.364 4.438 4.9v6.686c0 1.729-1.729 2.191-2.133 3.862-0.518 2.075 0.174 3.632-0.691 5.534-1.038 2.364-2.997 3.402-2.997 5.995 0 7.032 0.345 10.952 0.921 17.985l3.229-1.614c2.074 4.15 6.052 5.072 10.664 5.072h4.958c3.515 0 5.36-1.441 8.587-2.767-0.23 1.614-0.692 2.479-1.383 3.92v1.614c0.865 0.058 1.383 0.231 2.249 0.231 1.786 0 2.593-1.21 4.208-1.845 2.825-1.153 5.016-1.038 7.378-2.998 1.614-1.325 1.038-3.804 2.998-4.612 5.476-2.363 9.396-1.267 14.987-3.228 3.574-1.211 4.727-4.612 8.531-4.612 1.96 0 2.133 2.363 3.689 3.458 2.479 1.729 4.496 2.076 6.456 4.381 2.018 2.422 1.787 5.303 4.612 6.687 5.303 2.651 8.012 4.785 12.22 8.992 1.153 1.153 2.998 1.383 2.998 2.997 0 1.384-1.615 1.615-2.306 2.767-2.998 4.842-7.839 6.745-7.839 12.451 0 1.384 1.153 2.536 2.536 2.536 6.284 0 9.165-4.612 15.449-4.612 6.225 0 6.455 9.685 12.681 9.685 1.96 0 2.191-2.998 4.151-2.998 2.074 0 2.651 1.844 4.381 2.998 4.612 3.055 7.608 5.302 13.142 5.302 5.649 0 7.724-5.533 13.373-5.533 2.652 0 4.034 1.153 6.686 1.153 2.479 0 3.747-0.922 6.225-0.922 4.9 0 7.321 2.997 12.221 2.997 2.536 0 3.919-0.461 6.455-0.461 0.635 0.634 1.153 1.096 1.845 1.614 4.15-5.534 4.093-10.146 6.225-16.832 0.635-2.075 2.882-1.96 4.612-3.228 1.672-1.211 1.787-3.055 3.458-4.381 1.845-1.441 5.072-1.096 5.072-3.459 0-3.689-2.767-5.417-2.767-9.107 0-11.587 8.762-16.89 8.762-28.475 0-3.113-0.693-4.842-0.693-7.955 1.153-0.059 1.845 0 2.998 0 3.458 0 2.074-5.188 2.074-8.647 0.405-0.115 0.693-0.461 1.153-0.461 2.767 0 4.15 1.844 6.917 1.844 4.382 0 7.783-1.788 9.684-5.764 1.557-3.344-0.807-6.111 0.693-9.454 0.922-2.076 3.228-1.902 5.303-2.767 1.442-0.635 2.075-1.844 3.689-1.844 2.651 0 3.688 2.536 6.34 2.536 7.667 0 10.434-7.839 18.1-7.839 0.75 0 1.095 0.693 1.845 0.693 2.709 0 3.747-2.767 6.456-2.767 1.614 0 2.536 0.691 4.15 0.691 2.536 0 2.652-3.92 5.188-3.92 2.594 0 4.496 1.095 5.879 3.229 2.306-0.922 3.286-2.767 5.765-2.767 5.534 0 5.938 6.398 9.915 10.145 2.94 2.767 6.283 1.615 10.375 1.615 4.265 0 6.745-2.595 8.992-6.225 1.038-1.673 0.576-3.574 2.075-4.842 1.672-1.442 4.151 0.115 5.534-1.614 2.998-3.747 4.9-7.609 9.684-7.609 5.938 0 9.453 3.285 12.912 8.07 1.211 1.672 1.383 4.151 3.458 4.151 1.959 0 2.478-1.729 4.15-2.767 2.364-1.442 4.669-0.866 6.687-2.767 1.383-1.269 1.268-2.998 2.766-4.15l1.845 0.461c3.229-0.922 4.669-3.458 8.07-3.458 4.727 0 7.898 2.767 10.837 6.456 0.692 1.729 1.787 3.228 3.689 3.228 5.015 0 7.667-1.845 12.682-1.845 2.766 0 3.747 2.651 5.072 5.072 2.421 4.381 5.822 6.918 10.837 6.918 7.147 0 8.07-10.146 15.217-10.146 0.922 0 1.442 0.461 2.364 0.461h5.879c4.266 0 5.649-3.804 9.742-5.072 7.552-2.363 11.932-4.323 18.215-8.992 4.612-3.458 7.091-7.608 12.912-7.608 0.98 0 1.383 0.461 2.305 0.922 1.038-1.326 0.981-3.055 2.536-3.689 2.364-0.98 4.324-0.173 6.456-1.614 1.498-0.981 1.845-2.998 3.689-2.998 1.902 0 2.825 1.153 4.727 1.153 3.978 0 6.686 0.692 10.26-0.922 2.305-1.038 1.788-5.072 4.381-5.072 3.402 0 5.246 1.152 8.646 1.152 3.055 0 4.266-2.94 5.419-5.764 1.326-3.343 4.67-4.381 8.301-4.381 1.729 0 2.421 1.614 4.15 1.614 2.825 0 4.093-1.729 6.687-2.767 3.458-1.442 6.11-0.058 9.684-1.383 2.536-0.922 3.285-3.458 5.995-3.458 3.919 0 5.995 1.555 9.684 2.767 4.036 1.325 8.07 3.112 8.07 7.377 0 2.536-3.516 3.285-5.765 4.381-0.692 2.133-2.305 3.055-2.305 5.303 0 8.416-8.415 13.604-16.831 13.604-1.96 0-2.882-1.153-4.842-1.153-2.247 0-2.708 2.306-4.611 3.458-1.787 1.096-4.151 1.556-4.151 3.689 0 2.075 1.845 2.998 1.845 5.072 0 1.845-1.152 2.767-1.383 4.612l2.076 6.917c-0.058 1.269 0 2.018 0 3.285 0 7.436 12.22 7.263 12.22 14.699 0 5.475-6.918 6.744-6.918 12.22 0 2.422 2.941 2.709 5.304 3.229 3.285 0.748 5.418 0.979 8.3 2.767 5.476 3.4 5.649 8.415 9.223 13.834 2.249-0.98 3.919-1.788 5.072-3.92 0.576-1.096 0.807-2.536 2.076-2.536 2.881 0 4.381 1.269 7.148 2.075 1.845 0.518 4.15-0.173 4.841 1.614 0.519 1.325-0.346 2.536 0.462 3.689 2.018 2.882 5.764 3.401 5.764 6.917 0 1.556-0.692 2.364-0.692 3.92 0 3.285 4.842 3.632 4.842 6.917 0 2.479-1.499 3.632-2.768 5.764-1.786 1.153-3.458 2.249-3.458 4.381 0 1.903 1.615 2.71 1.615 4.612 0 3.689-2.076 5.362-3.458 8.761 0.98 0.635 1.556 1.615 2.766 1.615 0.404 0 0.519-0.462 0.922-0.462 7.667 0 11.472 4.842 19.138 4.842 0.98 0 1.556-0.231 2.536-0.462l0.922 0.231c1.442 8.877 3.632 13.431 6.225 21.904 1.153 3.689 0.404 6.687 2.997 9.453 3.978 4.209 7.667 5.418 13.373 6.687 1.729 0.346 1.557 2.479 2.998 3.458 4.209 2.998 8.359 0.462 13.142 2.536 1.5 0.635 1.038 2.71 2.305 3.689 2.249 1.729 4.496-0.115 7.379 0.231 6.572 0.807 9.108 5.015 14.295 8.992 1.498 1.152 3.056 0.98 4.612 2.074 1.383 0.981 1.498 2.998 3.228 2.998 2.133 0 2.94-2.075 5.072-2.075 2.076 0 3.229 0.462 5.304 0.462 4.092 0 5.821-3.458 9.914-3.458 3.229 0 3.459 4.841 6.687 4.841 2.881 0 4.035-2.767 6.917-2.767 5.649 0 10.203-0.864 14.065 3.229 1.614 1.728 2.998 2.305 4.612 4.15 1.383 1.614 1.787 3.919 3.92 3.919 1.672 0 0.98-2.708 2.305-3.688 2.249-1.671 4.208-1.615 7.032-1.615 3.458 0 5.649 0.174 8.877 1.384 4.957 1.844 6.514 6.917 11.817 6.917 1.038 0 1.672-0.288 2.709-0.231 0.634 3.171-0.462 5.534 1.383 8.07 1.614 2.249 3.862 2.767 6.686 2.767 1.499 0 2.191-0.979 3.689-1.153l4.151 0.922h5.245c3.516 0 5.534-0.922 9.05-0.922 4.15 0 6.224 2.536 10.375 2.536 1.671 0 2.594-0.461 4.265-0.461 3.862 0 5.822 2.536 9.684 2.536 1.499 0 2.305-0.691 3.805-0.691 3.804 0 5.764 1.844 9.453 2.767 0.519 0.058 0.807 0.231 1.326 0.231 5.534 0 8.127-3.92 13.661-3.92s7.782 3.747 13.142 5.303c5.765 1.673 9.339 0.692 14.987 2.305 2.651 0.75 2.767 3.633 5.073 5.073 4.726 2.94 8.877 1.383 13.834 3.919 3.343 1.729 2.651 7.378 6.456 7.378 2.421 0 2.652-3.689 5.072-3.689 1.268 0 1.96 0.691 3.228 0.691 1.845 0 2.767-1.152 4.612-1.152 4.381 0 6.686 1.499 10.837 2.767 2.018 0.576 2.709 2.766 4.841 2.766 1.788 0 0.981-2.766 1.615-4.381 1.326-3.285 4.554-4.381 8.128-4.381 2.132 0 3.343 0.173 5.475 0.231 0.462-2.132-0.748-5.303 1.384-5.303 2.997 0 4.61 1.269 7.378 2.305 1.326 0.462 2.651 0.059 3.689 0.922 1.614 1.384-0.403 4.093 1.153 5.534 1.614 1.499 3.516 0.635 5.764 0.692 2.595 0.059 3.978 0.922 6.572 0.922 1.557 0 2.305-0.692 3.862-0.692h4.727c3.804 0 5.821-1.614 9.511-2.536 2.19 4.381 3.343 9.453 8.185 9.453 2.825 0 3.343-2.997 5.418-4.841 2.421 2.421 5.765 0.345 8.301 2.536 1.902 1.672 0.461 5.764 2.997 5.764 2.422 0 2.651-3.689 5.073-3.689 2.594 0 3.689 1.788 6.225 2.306 2.074 0.404 3.458-0.403 5.533 0 5.418 1.095 7.552 4.265 12.682 6.456 6.168 2.651 10.145 2.594 16.831 3.688l1e-3 1e-3c1.152-1.037 2.133-2.074 3.689-2.074 0.807 0 0.692 1.267 1.152 1.844 1.442 1.729 2.998 2.767 5.304 2.767 1.787 0 2.825-0.173 4.61-0.462l2.767 0.691c1.903-0.748 3.055-0.979 4.842-1.844 0.289 3.458 3.458 5.534 6.917 5.534 4.785 0 7.724-2.767 10.145-6.917 2.306 2.305 4.612 2.767 7.84 2.767 3.862 0 8.588-0.058 9.222-3.92 1.673 1.325 3.171 1.614 5.362 1.614h7.32c3.171 3.171 5.995 3.92 9.915 5.996 2.651 1.383 3.574 3.574 6.455 4.381 6.687 1.902 8.359 9.222 15.333 9.222 4.785 0 5.476-6.917 10.261-6.917 3.17 0 4.61 1.788 7.608 2.767 7.205 2.364 11.817 2.709 18.445 6.456 3.805 2.133 2.133 6.629 3.92 10.606 1.211 2.651 3.689 2.767 5.764 4.841 2.076 2.075 2.364 5.303 5.303 5.303 2.882 0 4.727-0.345 7.148-1.845 0.866-0.518 0.807-1.844 1.844-1.844 1.442 0 2.249 0.692 3.689 0.692 2.19 0 3.112-2.075 5.303-2.075 2.594 0 3.171 3.458 5.764 3.458 5.823 0 8.705-3.458 14.526-3.458 4.612 0 6.456 3.458 10.606 5.534l1.845 0.461c12.797-3.63 19.714-8.3 32.971-8.3 2.825 0 6.917-0.749 6.917 2.074 0 1.326-1.614 1.673-1.614 2.998 0 1.557 2.133 1.557 2.997 2.767 1.442 2.018 2.595 3.919 5.131 3.919h4.727c2.767 0 3.285 3.689 6.051 3.689 3.633 0 3.517-5.995 7.148-5.995 3.458 0 4.958 2.651 7.378 5.072 3.458 3.458 4.957 6.11 6.917 10.606 1.788 4.209 2.018 9.684 6.572 9.684 3.689 0 6.11-3.515 6.11-7.204 0-1.211-0.231-1.902-0.231-3.113 0-2.074 0.692-3.285 0.692-5.361 0-2.998-1.614-4.612-1.614-7.608 0-5.765 7.206-7.148 12.97-7.148h4.496c2.651 0 3.574-2.075 5.821-3.458 2.767-1.73 4.324-3.055 6.456-5.534 3.632-4.208 7.09-5.822 8.992-11.068 1.614-4.381 1.441-7.955 5.072-10.837 1.787 1.326 2.363 2.71 4.381 3.689 1.326-2.363 0.519-6.225 3.228-6.225 2.133 0 2.767 2.134 4.151 3.689 0.461-1.21 0.98-2.536 2.305-2.536 3.805 0 5.649 2.767 9.453 2.767 2.364 0 2.882-2.536 5.073-3.458 7.09-3.055 5.937-10.665 8.069-17.985 0.577-2.018 2.71-2.305 3.689-4.15 1.788-3.402 1.038-6.053 2.306-9.684 1.325-3.689 4.092-5.534 4.381-9.453 4.554-3.402 4.438-10.607 10.145-10.607 4.555 0 6.398 3.805 10.952 4.151v-7.378l3.804 1.153c2.422-3.689 5.073-6.225 9.454-6.225 2.074 0 2.709 2.248 3.458 4.15 1.442 3.516 1.787 5.937 3.228 9.453 1.844-1.845 3.748-2.249 4.612-4.611 0.692-1.96-0.346-3.689 0.692-5.534 1.384-2.479 3.286-3.055 5.303-5.072 4.555-4.555 7.84-8.301 14.295-8.301 3.343 0 4.958 2.305 8.301 2.305 1.787 0 1.902-2.074 3.228-3.228 1.153-1.038 2.249-0.98 3.689-1.383 1.671-0.519 2.133-2.536 3.92-2.536 2.363 0 2.709 3.228 5.072 3.228 1.902 0 2.479-2.075 4.381-2.075 4.381 0 6.975 0.346 11.067 1.845 1.326 0.462 2.537-0.576 3.689 0.231 1.384 0.979 1.096 2.823 2.536 3.689 5.362 3.343 9.569 3.458 15.909 3.458 2.651 0 3.863-1.788 6.456-2.306 2.767-0.576 4.669 0.749 7.378-0.23 2.536-0.922 2.364-4.842 5.072-4.842 3.458 0 4.612 3.689 8.07 3.689 1.326 0 1.383-1.788 2.536-2.305 3.402-1.615 5.879-0.462 9.684-0.462 1.729 0 2.421 1.845 4.15 1.845 5.708 0 8.82-1.845 14.526-1.845 2.133 0 2.536 2.305 4.15 3.689 3.113 2.708 6.053 2.536 10.145 2.536v4.668c0 1.442 1.845 1.442 2.536 2.71 1.442 2.708 1.268 6.686 4.381 6.686 2.249 0 2.133-3.919 4.381-3.919 2.191 0 3.113 2.074 5.303 2.074 2.71 0 3.055-3.112 5.303-4.61 2.883-1.903 5.938-1.153 8.301-3.69 1.729-1.844 0.75-3.977 1.152-6.455 0.346-2.364 2.306-3.343 2.306-5.765 0-2.363-1.153-3.632-1.153-5.995 0-2.479 3.574-1.787 5.534-3.228 4.15-3.113 7.032-4.381 11.989-5.995 0.922 1.614 2.134 2.881 3.92 3.458 1.844 0.287 2.94 0.461 4.612 1.152 0.576-1.729-0.173-3.228 0.922-4.611 1.729-2.134 5.188-0.692 6.455-3.229l-0.922-3.458-0.244-1.804c3.436-1.309 6.349-3.038 10.851-3.038 8.646 0 12.565 6.917 21.212 6.917 12.566 0 17.523-11.529 30.089-11.529h8.991c8.185 0 11.077 6.897 18.562 10.145 8.193 3.555 14.511 1.407 22.133 5.996 4.252 2.559 3.208 7.87 7.378 10.605 2.862 1.876 6-0.01 9.223 1.384 1.196 0.517 2.251 1.121 3.197 1.792l0.262-8.652c0-2.248 0.691-3.574 0.691-5.821 0-4.323-3.631-6.052-4.15-10.375-9.339-0.922-14.757-9.568-14.757-18.907 0-11.529 4.843-17.753 4.843-29.282 0-3.401-3.92-4.439-3.92-7.839 0-1.671 0.174-3.919 1.845-3.919 1.269 0 1.96 0.692 3.229 0.692 3.285 0 4.554-3.228 7.839-3.228 1.442 0 1.902 1.614 3.343 1.614 1.211 0 1.442-1.729 2.651-1.729 1.442 0 2.191 0.115 3.633 0.115 5.475 0 4.091-8.013 8.587-11.068 3.689-2.536 7.032-1.211 11.068-3.228 4.842-3.632 8.934-5.706 10.837-11.529 3.977-5.303 8.877-5.995 12.22-11.759 1.614-2.823 2.824-4.438 3.689-7.608 0.633-2.422 1.152-5.303 3.688-5.303 1.73 0 2.421 1.614 4.151 1.614 2.421 0 3.054-2.478 5.072-3.689 1.441-0.865 2.823-1.21 3.458-2.767 0.922-2.19 0.692-4.727 2.998-5.303l4.841 0.922h1.845v-4.668c0-3.689 3.458-5.188 3.458-8.877v-5.649c0-2.882 2.132-3.978 3.229-6.629 2.421 1.442 3.515 3.055 4.381 5.765l4.15-1.153c2.191 0.231 3.689-0.231 5.534 0.922 0.692 0.404 0.748 1.614 1.614 1.614 2.651 0 2.421-4.612 5.072-4.612 3.92 0 5.534 3.458 9.454 3.458 3.515 0 5.244-2.305 8.762-2.305 4.957 0 4.726 8.301 9.684 8.301 3.574 0 2.421-6.918 5.995-6.918 3.919 0 5.764 2.998 9.684 2.998 0.749 0 0.576-1.21 1.153-1.614 2.132-1.498 4.092-0.98 6.686-1.614-2.536-3.516-5.649-3.977-8.3-7.378-2.191-2.824-2.134-7.378-5.765-7.378-2.249 0-2.825 2.191-4.612 3.459-1.383-1.556-2.997-2.306-2.997-4.382 0-2.074 2.708-1.901 4.381-2.997 4.611-3.17 8.011-3.861 13.603-4.612 3.285-0.461 7.378-0.865 7.378-4.15 0-3.861-3.516-6.687-7.378-6.687-1.326 0-1.902 0.922-3.228 0.922-2.536 0-2.825-3.112-5.303-3.689 0.231-2.766-1.384-4.15-1.384-6.917 0-2.248 1.615-3.285 1.844-5.534 1.153-0.057 1.787-0.23 2.94-0.23 1.959 0 1.902-2.536 3.285-3.92 1.5-1.498 4.612-0.979 4.612-3.112 0-1.153-0.404-1.902-0.922-2.882l0.231-0.922c3.228-0.807 5.188-0.922 8.531-1.153v-1.67c0-4.785-3.285-9.396-8.07-9.396-5.533 0-8.184 3.458-13.718 3.458-2.94 0-2.882-3.977-2.882-6.917 0-3.17 2.536-4.669 2.536-7.84 0-3.4-2.249-4.898-3.458-8.07-2.19 1.269-3.747 2.075-6.283 2.075-1.21 0-1.96-0.115-3.17-0.115-0.576-4.553-0.289-7.204-1.384-11.643 1.671-0.518 2.94-0.173 4.612-0.693 1.844-0.576 1.384-2.881 1.614-4.841 0.346-2.998 0.692-4.727 1.384-7.609 0.231-0.518 1.153-1.268 1.153-1.845 0-2.477-1.269-4.091-3.229-5.533v-1.153c4.727 0.346 7.494-0.922 11.99-2.306 2.88-0.899 2.388-4.631 2.763-7.588h-2328.5c-0.187 0.578-0.358 1.183-0.515 1.83z" fill="#ED2939"/>
	<path d="m1892.8 49.588c-0.519 0-0.807 0.173-1.326 0.231v2.709c0 2.536 1.153 3.862 1.153 6.398 0 3.92-4.842 4.265-6.226 7.955-1.037 2.767-0.922 4.668-0.922 7.608 0 4.785-0.172 7.666 1.153 12.221 0.404 1.498 2.306 1.845 2.306 3.458 0 2.132-2.537 2.708-2.537 4.841 0 5.361 3.459 8.012 3.459 13.373 0 3.805-2.306 5.649-2.306 9.454 0 2.247-2.132 3.919-4.381 3.919 0.231 2.363 0.692 3.632 0.692 5.995 0 1.153-0.922 1.614-0.922 2.767 0 3.401 2.134 5.361 5.304 6.917-1.384 1.556-3.575 0.807-5.073 2.306-2.651 2.651-1.038 5.821-2.075 9.453-1.728 5.879-4.611 8.877-4.611 14.987 0 4.612 8.991 2.998 8.991 7.609 0 5.245-5.36 8.3-10.605 8.3-3.229 0-4.382-3.228-7.609-3.228-0.922 0-1.383 0.461-2.305 0.461-2.306 0-3.458-1.614-5.765-1.614-1.268 0-1.96 0.462-3.228 0.462-2.709 0-2.594-4.612-5.303-4.612-2.075 0-2.767 2.305-4.842 2.305-4.553 0-6.571-3.689-11.125-3.689-1.787 0-2.767 0.346-4.554 0.231l-0.231 2.075c-0.057 2.593-0.23 4.034-0.23 6.629 0 3.574-3.229 5.072-3.229 8.646v4.496c0 0.865 1.153 1.038 1.153 1.901 0 2.882-2.594 3.748-5.303 5.073-1.038 1.845-1.094 3.747-2.998 4.611-2.19 0.981-4.265 0.462-5.764 2.306-1.21 1.498-0.922 3.516-2.767 4.15-3.228 1.095-6.225 1.153-7.839 4.151-2.536 4.726-1.498 8.358-2.998 13.603-1.153 4.034-2.305 6.283-2.305 10.491 0 2.306 0.692 3.574 0.692 5.879 0 3.286-1.845 5.016-1.845 8.301 0 2.536 1.153 3.92 1.153 6.456 0 4.323-4.496 5.822-4.496 10.144 0 1.096 0.173 1.672 0 2.767-2.248-0.518-3.458-1.383-5.765-1.383-1.614 0-2.421 0.691-4.035 0.691-2.248 0-2.363-2.767-3.228-4.841-1.038-2.536-1.787-3.978-2.998-6.456-0.576-1.21-0.922-2.767-2.305-2.767-3.344 0-4.496 3.458-7.84 3.458-5.533 0-2.305-11.759-7.839-11.759-2.593 0-2.767 3.229-5.072 4.381-3.92 1.96-6.572 2.998-8.992 6.687-2.882-2.075-4.092-5.072-7.666-5.072h-4.785c-1.67-1.499-2.824-2.767-5.072-2.767-0.749 0-1.094 0.691-1.845 0.691-2.017 0-2.191-2.478-2.767-4.381-0.634-2.075-2.248-2.652-3.228-4.612s-1.21-4.612-3.458-4.612c-4.208 0-6.514 1.326-10.606 2.306 0.23 3.343 2.074 4.957 2.074 8.3 0 4.036-3.458 5.477-4.841 9.223-1.269 3.458-1.153 8.07-4.842 8.07-4.092 0-6.282-1.384-10.375-1.384-0.403 0-0.518 0.404-0.922 0.462v4.554c0 2.075 0.692 3.285 0.692 5.361 0 1.787-1.901 2.767-3.689 2.767-2.536 0-3.458-2.537-5.995-2.537-5.591 0-4.265 7.725-8.301 11.759l-0.921-0.231c-0.173-1.094-0.346-1.729-0.693-2.766-2.593-4.496-7.263-3.054-11.758-5.534-4.899-2.709-6.859-7.148-12.451-7.148-1.729 0-2.422 1.845-4.151 1.845s-1.67-2.363-3.228-2.998c-6.225-2.536-9.915-4.612-16.601-4.612-2.018 0-3.056 1.384-5.072 1.384-5.534 0-8.301-3.229-13.835-3.229-1.96 0-1.729 3.459-3.689 3.459-1.325 0-1.901-0.922-3.228-0.922-2.536 0-2.363-3.805-4.842-4.381-2.421-0.577-3.746-0.923-6.225-0.923-1.325 0-1.614 1.499-2.767 2.075-0.692-2.075-1.383-3.343-1.383-5.534-4.899 1.212-6.052-5.591-6.917-10.491h-6.225c-0.692-2.536-1.384-4.322-3.458-5.879 2.421-2.421 2.767-4.612 5.303-6.687 2.305-1.901 4.841-0.114 7.608-1.152 2.536-0.922 2.076-3.977 2.076-6.687 0-3.861-4.554-4.034-7.839-5.995-3.632-2.191-4.842-4.668-7.379-8.07-1.383-1.901-0.749-4.265-2.767-5.534-5.015-3.17-9.28-1.325-14.756-3.688-6.513-2.825-8.761-7.09-12.912-12.682-6.743-8.992-12.277-16.601-23.518-16.601-1.383 0-2.363 0.576-3.458 1.383-8.818 4.784-3.689 16.831-11.529 23.057-1.269 2.536-2.767 3.861-2.767 6.687 1.557-0.174 2.651-0.866 3.92 0 2.19 1.498 1.442 5.533 4.15 5.533 1.152 0 1.844-0.231 2.998-0.058v1.383c0 1.557-0.577 2.364-1.153 3.748-1.325-0.174-1.902-1.153-3.229-1.153-0.748 0-1.037 0.922-1.037 1.672v13.718c0 6.11 1.959 9.396 1.959 15.506 0 5.13-1.268 8.185-3.688 12.682-1.038 1.959-3.459 2.421-3.459 4.668v4.496c0 0.807 0.462 1.326 0.462 2.133 0 4.208-3.689 5.591-6.456 8.761-2.19 2.536-1.96 6.686-5.303 6.686-2.767 0-2.997-3.343-5.533-4.381-2.306 3.113-2.767 5.765-2.767 9.684 0 2.422 1.614 3.574 1.614 5.996 0 2.305-2.825 2.478-3.689 4.612-0.922 2.305-2.823 3.458-6.917 3.112-5.246-2.94-7.826-3.648-11.299-6.572-3.099-2.61-6.988-1.664-9.222-5.072-1.281-1.952-0.62-4.988-2.767-5.995-6.936-3.254-10.037-6.668-16.601-10.375-3.082-1.741-3.862 5.303-7.379 5.303-8.3 0-8.178-11.176-15.909-14.065-3.024-1.13-5.938-1.5-8.3 0.691-1.615 1.497-0.167 3.868-1.615 5.533-0.251 0.289-0.516 0.521-0.948 0.795-2.922 4.356-4.124 10.042-9.196 10.042-1.845 0-2.767-1.383-4.612-1.383-2.536 0-5.534 1.153-5.534 3.689 0 3.458 3.689 4.841 3.689 8.3 0 1.153-1.384 1.615-1.384 2.767 0 2.191 3.229 2.421 3.229 4.612 0 13.027-8.301 19.252-8.301 32.279 0 3.689 2.767 5.534 2.767 9.223 0 5.995-3.458 8.992-4.612 14.757-1.268 6.34 0.109 10.948-3.228 16.601-3.81 6.452-10.264 5.758-16.601 9.684-6.69 4.144-7.418 10.122-11.528 17.061-2.922 4.934-7.597 4.639-12.912 6.918-7.596 3.255-11.067 8.761-19.368 8.761-5.764 0-8.992-1.845-14.756-1.845-11.182 0-15.563 10.606-26.746 10.606-3.574 0-5.648-0.922-9.223-0.922-7.839 0-10.224 7.19-17.523 10.144-2.545 1.031-4.876 1.791-7.65 2.77-0.915 1.629-1.379 3.466-1.906 4.844-0.08 0.208-1.817 2.902-2.275 3.361-0.651 0.651-1.018 1.731-1.796 2.161-1.244 0.687-3.125 2.62-4.191 3.481-1.976 1.597-3.683 3.044-5.268 5.041-1.329 1.674-3.164 3.205-5.149 4.081-6.267 2.769-17.566-0.654-23.11 2.041-4.213 2.048-6.505 12.261-8.621 16.085-1.524 2.755-4.066 0.667-5.867 3.722-0.951 1.613-1.055 3.777-1.967 4.992h1402c-2.737-4.142-5.031-9.003-10.325-9.003-1.283-1.71-0.657-3.615-0.864-6.225-0.346-4.496-1.73-6.917-2.767-11.298-0.98-4.208-0.807-7.032-3.229-10.606-1.441-2.19-3.285-3.112-3.689-5.764l1.384-8.301v-5.534c-2.824-2.536-6.053-0.864-9.453-2.536-3.863-1.901-3.748-5.821-5.073-9.915-1.095-3.343-4.15-4.726-4.15-8.3s3.919-4.727 3.919-8.301c0-5.88-11.989-3.343-11.989-9.223 0-0.807 0.922-1.037 0.922-1.844 0-0.462-0.346-0.749-0.461-1.153h-4.785c-4.151 0-6.052-4.612-6.052-8.761 0-2.998-1.153-4.784-1.153-7.781 0-0.577 0.173-0.866 0.231-1.442l0.922-0.231c0.691 0.231 1.094 0.692 1.845 0.692 2.882 0 3.228-3.804 3.228-6.686 0-3.112-1.844-4.727-1.844-7.839 0-2.132 4.381-1.325 4.381-3.458 0-1.96-2.018-2.363-2.767-4.15-1.556-3.575-0.923-5.996-0.923-9.857 0-1.557-0.288-2.421 0-3.978 1.615 0 2.537 0.173 4.151 0l0.231-1.614-0.693-2.998c0.693-1.729 2.536-1.786 3.689-3.228 0.98-1.269 0.634-3.689 2.306-3.689 0.748 0 1.094 0.692 1.844 0.692 2.537 0 1.73-4.035 3.92-5.304-0.922-1.441-1.614-2.421-1.614-4.15 0-1.845 2.074-2.767 3.919-2.767 0.98 0 1.325 0.922 2.306 0.922 0.461 0 0.749-0.346 1.153-0.461 0.345-2.882 0.172-4.496 0.057-7.378 1.326 0 2.536 0.461 3.402-0.462 1.325-1.44 0.288-4.611 2.305-4.611 1.269 0 2.017 0.404 3.228 0.692 0.981-3.977 3.92-5.591 3.92-9.684 0-6.572-5.765-9.339-5.765-15.909 0-3.113 1.844-4.727 1.844-7.839 0-2.594-1.614-3.862-1.614-6.456 0-1.441 0.807-2.191 1.844-3.228l-1.153-5.073c-2.191 0-4.207-0.748-5.764-2.305 0.461-3.054 0.922-5.245 1.153-8.301l-1.844-9.684 1.152-5.534c-0.807-2.477-2.997-3.4-2.997-5.995 0-1.498 1.153-2.19 1.153-3.689 0-3.458-2.479-4.957-3.92-8.07-0.922-2.074-0.346-4.034-2.075-5.533-2.132-1.902-5.244-0.231-6.917-2.536l-0.691 0.922c-0.807 4.208-5.937 3.688-10.146 3.688-1.844 0-3.054-0.518-4.381-1.844v2.305h-4.553c-1.902 0-2.767 1.383-4.669 1.383-4.842 0-7.321-2.248-11.528-4.611-2.422-1.326-5.13-0.346-6.687-2.537-1.441-2.017-1.901-3.804-3.919-5.302l-1.844 0.461c-2.248-1.96-4.092-3.458-7.148-3.458-3.574 0-5.245 2.249-7.839 4.841-1.499-0.864-1.671-2.421-2.536-3.919-0.693-1.21-2.075-1.556-2.075-2.998 0-2.997 2.075-4.496 2.075-7.493 0-7.897-6.687-11.299-13.835-14.872-1.094 2.248-3.228 3.229-5.764 3.229-3.689 0-6.052 0.057-9.454-1.384-2.19-0.922-1.152-4.092-3.228-5.303-3.054-1.787-6.052-0.404-8.761-2.767-3.17-2.767-3.401-5.707-6.456-8.761-3.112 1.845-2.939 5.13-5.764 7.379-1.384-1.038-2.478-1.614-4.266-1.614-2.536 0-4.035 0.691-6.571 0.691-3.516 0-8.629-2.681-11.569-4.641-2.701 4.306-6.087 8.289-8.159 12.999-4.664 10.595-13.732 28.268-27.422 27.664-5.814-0.256-10.096-3.479-14.436-5.982-4.702 0.683-7.181 0.625-11.677 0.625-2.421 0-3.171 2.767-5.592 2.767-8.992 0-14.007-1.786-22.596-4.612-3.515 0-5.706-1.383-9.222-1.383-2.939 0-3.632 3.92-6.572 3.92-2.997 0-4.496-2.076-7.493-2.076-0.922 0-1.384 0.461-2.306 0.461-6.282 0-9.107-3.631-14.756-6.455-4.438-2.191-7.32-2.767-11.759-4.842-8.588-4.034-13.776-6.398-20.521-13.142-2.19-2.19-6.224-1.96-6.224-5.072 0-3.805 1.095-5.822 2.305-9.453-2.825-0.693-3.862-2.767-6.687-2.767-1.21 0-1.094 2.074-2.305 2.074-1.901 0-1.325-2.767-2.36-4.381-5.886 1.651-0.867-3.475-5.654-5.198-8.968-3.227-22.495-7.582-26.329-17.079l-9.868 0.373c-2.364 0-3.688-1.153-6.052-1.153-2.709 0-2.536 3.401-4.151 5.534-2.593 3.343-5.072 5.534-9.28 5.534h-4.726c-3.689 0-5.131-3.459-8.82-3.459-1.845 0-2.305 2.306-4.15 2.306-1.672 0-1.441-2.306-2.306-3.689-1.614-2.651-3.574-3.343-5.533-5.764-3.344-4.093-7.494-3.633-12.22-5.995-3.689-1.846-3.977-6.918-8.128-6.918h-4.727c-2.363 0-3.688 1.153-6.052 1.153-3.977 0-5.475-3.112-9.223-4.381-5.706-1.96-10.663-2.305-13.603-7.608-1.902-3.459-1.499-6.515-4.381-9.223-2.249-2.075-4.727-1.614-7.378-3.228-1.383-0.808-1.614-2.767-3.228-2.767-1.555 0-1.44 2.536-2.997 2.536-0.346 0-0.576-0.231-0.922-0.231-3.862-1.269-6.513-0.461-9.915-2.536-2.421-1.498-2.421-4.15-5.072-5.303-5.591-2.421-8.416-4.669-13.373-8.07-3.92-2.709-6.513-5.072-11.298-5.072-3.285 0-5.015 1.383-8.301 1.383-4.437 0-5.245-4.785-8.761-7.378-0.461 0.576-1.153 0.864-1.153 1.67v4.727c0 3.574-1.901 5.303-3.689 8.359-0.979 1.671-0.576 4.381-2.536 4.381-2.536 0-3.919-0.922-6.455-0.922-4.958 0-8.301-0.635-12.682 1.614-2.594 1.325-2.305 4.496-5.072 5.534-1.672 0.576-2.882-0.289-4.612 0-1.384 0.231-1.787 1.845-3.229 1.845-0.921 0-1.383-0.922-1.383-1.845 0-3.458 2.998-4.842 2.998-8.301 0-4.265-2.478-6.283-4.612-9.915-1.499-2.536-0.287-5.648-2.767-7.147-3.574-2.133-6.398-1.615-10.606-1.615-2.19 0-3.112 2.075-5.303 2.075-2.305 0-3.458-1.095-5.764-1.383-2.248-0.231-4.554 0.403-5.534-1.615-1.096-2.249-0.231-4.15-1.153-6.455-1.614-0.115-2.478 0.23-4.092 0.23-3.978 0-5.764-3.228-9.741-3.228-1.153 0-1.384 1.383-2.536 1.383-1.671 0.014-2.537-0.908-4.207-0.908z" fill="#ED2939"/>
	<path d="m1161.1 490.06c-6.562-1.558-8.835 7.533-10.059 11.763-1.143 3.952-4.533 0.506-6.586-0.48-6.376-3.063-2.313 5.683-5.627 8.162-1.811 1.355-1.748 3.376-1.557 6.722 0.141 2.489 1.062 6.198 2.036 8.524 1.997 4.768 7.217 8.575 10.897 12.484 11.512 12.227 25.677 16.019 26.582 35.772 0.128 2.8 0.748 9.454 3.113 11.163 2.233 1.613 12.762 2.814 12.932 2.881 0.264 0.104 0.435-0.05 0.599 0.12 0.174 0.18 0.325 0.282 0.479 0.48 0.237 0.306 0.168 0.737 0.479 1.081 0.436 0.484 1.759 6.374 1.797 7.323 2e-3 0.056 0.066 0.105 0.119 0.119 1.927 0.51 3.686-2.175 4.909-0.6 1.678 2.16 1.005 6.884 2.275 9.363 2.134 4.164 4.06 5.951 6.586 9.723 2.544 3.798 5.099 8.732 6.705 12.965 1.286 3.394 2.638 9.841 3.923 13.687-0.147 6.367-4.469 8.558-7.525 13.514-2.651 4.265-2.478 7.781-5.995 11.299-1.845 2.766-4.15 3.458-6.455 5.764-1.556 1.556-0.462 3.515-0.692 5.764-0.172 1.73-1.383 2.363-2.074 3.92 1.095-0.173 1.672-0.173 2.767 0-0.115 2.248 0.289 4.092-1.153 5.765-0.634 0.748-1.844 0.806-1.844 1.844 0 1.441 0.115 2.248 0 3.689-4.323 0.577-7.839 3.516-7.839 7.839 0 5.592 3.862 10.837 9.453 10.837 3.171 0 4.9-1.614 8.07-1.614 2.249 0 3.056 2.305 5.303 2.305 3.805 0 5.072-2.997 8.531-4.611 0.981-0.462 1.903 0.345 2.767-0.231 1.557-1.095 2.191-2.998 4.151-2.998 2.018 0 2.825 1.729 4.15 3.229 1.788 2.017 3.516 2.421 5.534 4.15 5.361 4.668 10.375 7.897 10.375 14.987 0 1.441-0.692 2.248-0.692 3.689 0 6.859 5.995 9.74 5.995 16.601 0 5.937-4.265 8.301-6.917 13.604-0.577 1.153-2.075 1.441-2.075 2.767 0 1.786 0.231 2.767 0.231 4.553 0 3.402-4.668 2.94-6.917 5.361-1.096 1.21-0.922 2.652-0.922 4.382 0 2.939 2.767 4.207 2.767 7.147 0 6.341-4.265 8.935-6.687 14.757 2.364 0.576 4.439 1.498 4.842 3.919l-1.384 8.763v6.859c0 3.228-4.611 2.363-6.917 4.668-4.092 4.093-4.381 7.84-8.531 11.99-0.749-4.784-1.441-10.606-6.225-10.606-1.441 0-1.556 2.305-2.998 2.305-5.072 0-6.859-3.977-11.298-6.456-5.245-2.939-9.108-3.688-13.142-8.069-1.844-2.018-1.96-3.977-3.689-6.225-1.845-2.422-4.208-2.537-6.917-3.92-2.825-1.441-4.323-3.401-5.073-6.456-0.461-1.844-0.403-4.381-2.305-4.381-2.478 0-3.746 1.614-6.225 1.614-4.496 0-7.148-2.536-9.684-6.224-2.882-4.209-5.072-6.918-5.072-11.99 0-2.479 2.421-3.112 2.997-5.534 0.75-3.171 1.153-5.476 3.689-7.378 1.269-0.922 2.191-1.672 3.689-2.076 1.095-0.289 2.767 0 2.767-1.153 0-5.016-4.208-7.666-8.992-9.222-2.132-0.692-4.034 0.922-5.765-0.462-1.844-1.442-1.901-3.343-2.766-5.534-0.693-1.787-2.536-2.421-2.536-4.381 0-2.018 2.881-1.787 3.919-3.458 1.442-2.305 2.364-3.747 2.536-6.455-3.054 0.748-4.322 2.767-7.377 2.767-5.073 0-6.225-6.456-11.299-6.456-1.094 0-1.671 0.692-2.767 0.692-1.324 0-1.959-1.153-3.284-1.153h-4.727c-1.153 0-1.729 0.462-2.882 0.462h-5.418c-3.112 0-4.323 2.998-7.436 2.998-2.132 0-3.17-1.153-5.303-1.153-2.536 0-3.689 1.786-6.225 2.074-1.441 0.115-2.536-0.807-3.688 0-2.422 1.729-2.018 4.323-3.459 6.918-2.421 4.322-4.957 6.571-5.303 11.528l-0.922 0.23c-3.515-1.152-5.533-2.074-9.222-2.074-6.456 0-8.532 6.917-14.987 6.917-1.96 0-2.191-2.306-2.767-4.15-5.821-5.822-9.626-8.762-12.682-16.14-0.979-2.364-3.228-2.94-4.15-5.303-1.672-4.093-1.325-9.569-5.765-9.915l-18.906 5.764c-2.767-0.692-3.574-3.458-6.456-3.458-1.325 0-1.901 0.922-3.228 0.922-1.902 0-2.018-2.997-3.92-2.997-3.458 0-5.245 1.845-8.531 2.767-2.825 0.807-5.245-0.462-7.609 1.383-2.132 1.671-2.132 5.072-4.841 5.072-1.787 0-2.422-1.614-3.458-2.997-2.191-2.826-4.381-4.555-4.381-8.185 0-6.687 6.686-9.108 6.686-15.794 0-2.076-0.922-4.381-2.997-4.381-7.84 0-6.687 11.298-13.835 14.525-4.092 1.845-7.089 0.749-11.768 3.674-0.387 1.53-0.303 1.694-0.221 1.86 3.892 7.852 0.217 13.955 3.228 22.135 3.098 8.42 8.761 11.298 8.761 20.29 0 4.784-6.628 3.574-10.606 6.225-0.231-2.997-0.461-6.917-3.458-6.917-5.188 0-7.032 5.303-12.22 5.303-3.054 0-3.92-3.689-6.974-3.689h-4.496c-1.326 0-1.96 0.692-3.286 0.692-4.092 0-5.591-3.919-9.684-3.919-1.555 0-1.671 2.305-3.228 2.305-1.325 0-1.901-1.153-3.228-1.153-2.594 0-3.632 2.306-6.225 2.306-2.94 0-2.363-5.303-5.303-5.303-4.036 0-8.588 0.807-9.223 4.841-1.901-0.922-2.939-2.074-5.072-2.074-4.265 0-6.628 1.844-10.894 1.844h-5.418c-1.672 0-1.96 2.306-3.633 2.306-1.325 0-2.017-0.692-3.343-0.692-5.649 0-8.3 3.919-13.949 3.919v8.761c-2.478 0-3.632 1.615-6.11 1.615-2.422 0-3.632-1.499-5.996-1.845-7.665-1.269-12.046-1.729-19.828-2.998-1.21 0.172-1.845 0.692-3.054 0.692h-4.727c-1.845 0-2.825-0.461-4.669-0.461-6.283 0-9.626 2.997-15.909 2.997-4.208 0-6.168-3.228-10.375-3.228-3.862 0-4.669 5.072-8.532 5.072-0.922 0-1.383-0.461-2.305-0.461-3.113 0-2.939 4.092-4.15 6.917-0.865 2.076-2.998 2.767-2.998 5.072 0 4.092-1.556 6.283-1.845 10.376-0.231 3.458 1.095 6.11-1.153 8.761-1.729 2.075-4.092 1.614-6.686 2.536s-3.689 2.998-6.456 2.998c-2.421 0-3.574-1.615-5.995-1.615-1.787 0-2.478 1.557-4.15 2.075-3.574 1.153-5.88 0.462-9.684 0.462-5.476 0-8.935-1.153-13.373-4.382-3.574 7.148-7.781 9.858-13.373 15.449-1.787 1.787-5.072 1.787-5.072 4.381 0 2.018 1.498 3.92 3.516 3.92h5.649c3.688 0 2.132 5.476 3.746 8.762-0.692 0.058-1.094 0.23-1.787 0.23-0.921 0-1.442-0.576-2.363-0.691l-5.073 0.691-4.15-1.152c-1.556 0.345-1.441 2.536-2.998 2.536-2.652 0-3.804-2.075-6.455-2.075-3.458 0-6.341 2.536-6.687 5.995-1.441 0.174-2.305-0.115-3.689 0.231-1.729 0.462-1.498 2.94-3.228 3.229-2.305 0.404-3.631-0.289-5.995 0v4.092c0 1.672 0.692 2.652 0.692 4.323 0 3.113-3.228 4.035-6.225 4.957-3.285 0.981-5.072 2.537-8.531 2.537-1.96 0-2.652-1.845-4.612-1.845-1.498 0-2.191 1.152-3.689 1.152-0.576 0-0.922-0.461-1.383-0.692 2.536-6.167 9.453-7.608 9.453-14.295 0-2.536-3.92-0.461-6.456-0.461-2.881 0-4.034-2.536-6.917-2.536-2.536 0-3.228 2.421-5.534 3.458-3.228 1.441-5.534 1.498-8.761 2.997-3.977 1.845-6.282 3.055-10.145 5.303-1.614 0.922-4.15 0.635-4.15 2.537 0 1.037 0.231 1.672 0.231 2.709 0 2.652-3.632 2.824-6.282 2.824h-13.95c-1.902 0-2.997 0.174-4.9 0.462l-4.612-0.922c-1.21 0.692-1.324 1.787-2.305 2.767-1.556-1.153-2.652-1.845-4.612-1.845-1.44 0-2.248 0.922-3.688 0.922-5.418 0-11.528-2.422-11.528-7.839-0.058-0.577 0.23-1.095 0.23-1.672 0-2.94 3.92-3.458 3.92-6.398 0-8.935-8.473-11.24-14.295-17.985-1.441-1.672-4.381-1.672-4.381-3.92 0-2.132 1.557-2.997 2.075-5.072l-0.922-0.461h-5.015c-1.788 0-2.767-0.462-4.555-0.462-2.881 0-4.381 1.153-7.262 1.153-3.344 0-3.92-4.265-3.92-7.609 0-7.089 10.606-4.841 14.756-10.606-1.729-1.555-4.322-0.288-5.533-2.305-1.384-2.363-0.462-4.841-2.537-6.686-1.728-1.499-3.631-0.922-5.995-0.922-4.957 0-6.858 4.611-11.816 4.611h-7.552c-1.383 1.211-1.038 3.056-2.536 4.151-2.017 1.442-4.092-0.231-6.456 0.692-1.325 0.519-1.556 2.075-2.997 2.075-4.496 0-4.668-5.36-6.917-9.222-2.422-4.15-7.379-1.498-12.221-2.076-2.536-0.289-3.17-2.536-5.303-3.919-1.959-1.269-3.861-0.635-5.533-2.306-1.095-1.095-0.462-2.536-1.384-3.688-2.132-2.595-5.188-1.615-8.588-1.615h-5.879c-3.171 0-4.496-2.766-7.667-2.766-0.922 0-1.441 0.403-2.305 0.692l-5.073-0.922c-1.901 2.132-3.343 3.919-6.224 3.919-0.518 4.496 0.114 9.857-4.381 10.606l-6.687-1.152c-3.17 0.23-4.784 1.383-7.955 1.383-9.108 0-12.451-8.012-21.559-9.223 0.635-5.245 2.479-7.897 3.92-12.911 0.289-1.153 1.614-1.557 1.614-2.767 0-0.404-0.403-0.519-0.461-0.922-3.344 0.231-4.958 2.076-8.301 2.076-0.922 0-1.384-0.462-2.305-0.462-1.326 0-2.075 0.346-3.229 0.922l0.462 1.845v4.554c0 3.343 5.072 3.632 5.072 6.975 0 6.744-1.729 10.491-4.15 16.831 0 3.055-1.153 5.016-1.153 8.07 0 3.862 1.845 5.822 1.845 9.684 2.709 0.404 4.957-0.692 6.917 1.153 3.229 2.998 1.672 6.917 2.767 11.298 1.268 5.188 2.536 8.07 2.536 13.373 0 1.845-2.536 1.557-3.92 2.767-2.651 2.305-4.092 4.841-7.608 4.841-0.634 4.093-2.997 6.053-2.997 10.145 0 2.463 0.379 3.936 0.622 6.217l-1.775-0.222c-4.899 1.614-8.762 2.133-11.528 6.456-1.729 2.709-1.441 4.957-3.229 7.608-2.017 2.94-2.421 5.534-5.303 7.609-3.804 2.767-7.378 4.957-7.378 9.684 0 1.095 0.691 1.672 0.691 2.767 0 1.729-2.132 1.729-3.458 2.767-1.21 0.98-1.729 2.075-2.998 2.997l-4.15-0.692c-6.052 0.75-7.32 8.531-13.373 8.07-2.882-0.231-3.63 2.882-6.225 4.15-1.268 0.635-2.305-0.057-3.689 0.231-2.536 0.519-3.055 2.825-4.381 5.072-3.343-2.478-6.398-2.305-10.606-2.305-2.939 0-4.323 1.614-7.148 2.305-0.864-2.074-1.614-3.284-1.614-5.533 0-2.825-0.518-6.918 2.306-6.918 1.095 0 1.672 0.462 2.766 0.462 2.249 0 3.113-2.076 4.381-3.92 0.981-1.441 2.998-1.671 2.998-3.458 0-1.556-0.288-2.594-1.383-3.689-0.749-1.901-3.459-2.305-3.459-4.381 0-1.268 1.384-1.498 2.075-2.536 3.055-4.496 2.882-8.07 5.303-12.911 1.498-3.055 4.151-4.381 4.151-7.839 0-2.882-0.577-6.456-3.459-6.456-2.363 0-3.631 1.383-5.995 1.383-2.708 0-3.746-2.767-6.456-2.767-6.571 0-6.571 10.606-13.142 10.606-3.343 0-4.726-2.997-8.07-2.997-5.072 0-3.631 7.436-7.839 10.375-4.15-6.225-5.072-10.952-5.072-18.388v-4.15c0-2.364-1.556-4.669-3.92-4.669l-0.23-1.384c1.268-2.132 3.458-1.614 5.764-2.536 2.998-1.153 3.458-4.381 3.458-7.608 0-2.882-1.786-4.208-2.767-6.917-0.864-2.363-0.23-4.151-1.152-6.456-1.441 0.231-2.248 0.922-3.689 0.922-1.614 0-2.075-1.498-3.458-2.306-5.073-3.055-7.378-7.204-7.839-13.142h-1.556c-3.171 0-4.785 2.075-7.955 2.075h-4.727c-4.381 0-3.862-5.821-5.361-9.915-1.787-4.899-7.609-5.937-7.609-11.182 0-2.939 1.845-4.496 1.845-7.436 0-0.403-0.231-0.577-0.231-0.98-3.055 0.462-3.17 4.842-6.224 4.842-1.095 0-1.672-0.462-2.768-0.462-3.343 0-4.957 2.306-8.3 2.306-2.709 0-1.729-3.92-3.458-5.995-1.153-1.442-2.939-0.75-4.842-0.923-1.383-0.114-1.845-1.614-3.228-1.614-0.749 0-1.384 0.634-1.384 1.384v2.708c0 1.96-0.23 3.055-0.921 4.9-4.092-0.979-5.707-3.401-8.992-5.995-3.458-2.767-6.628-2.306-11.068-2.998 0.691-2.825 3.229-3.919 3.229-6.859v-8.416c0-1.153 0.461-1.786 0.461-2.939 0-2.133-3.401-0.807-5.072-2.075-3.401-2.594-6.283-3.458-10.606-3.458-4.554 0-6.052 4.612-7.839 8.761-2.478 5.706-3.862 9.05-6.225 14.756-1.038 2.594-0.205 5.439-2.453 7.053 0.155-0.093 0.192-0.172 0.372-0.159-0.177 0-2.388 2.526-3.057 2.971-8.161 5.419-16.69-0.094-25.569-0.094l-7.874 0.836c-0.62 2.508-4.488 5.434-6.485 6.963-2.954 2.259-6.08 3.262-9.449 4.549-2.163 0.827-4.493 1.006-6.581 1.919 1.211 4.842 5.875 5.303 8.296 9.625 1.845 3.286 1.729 8.07 5.534 8.07 1.557 0 2.191-1.555 2.767-2.997 5.534 4.15 9.396 7.148 16.37 7.148 0.059 0.576 0.231 0.865 0.231 1.442 0 3.284-1.383 5.072-1.383 8.357 0 10.491 5.072 15.909 5.072 26.4 0 6.975-11.759 3.055-15.448 8.992-4.091 6.629-5.244 11.067-9.914 17.292-3.632 4.842-5.765 7.609-9.454 12.451-1.671 2.191-1.094 4.439-2.767 6.687-2.78 3.739-4.849 6.105-6.171 10.165h2328.5c0.226-1.778 0.765-3.277 2.54-3.71-0.404-5.303-2.71-7.955-3.92-13.142-1.383-5.879-1.844-9.338-3.92-14.987-0.806-2.19-3.977-0.634-5.533-2.305-1.903-2.075-2.536-3.689-3.458-6.456 3.977-1.325 6.917-3.92 6.917-8.07 0-2.421-1.614-3.574-1.614-5.995 0-1.094 1.844-0.98 1.844-2.075 0-4.208-3.458-5.995-3.458-10.202 0-0.98 0.114-1.498 0.23-2.478 5.188-0.634 8.185-1.153 13.373-0.058v1.672l-1.152 4.841c0.46 1.845 1.094 3.92 2.997 3.92 3.977 0 5.475-3.229 8.07-6.225 2.998-3.458 6.456-4.381 11.067-4.381 2.537 0 3.92 1.383 6.456 1.383 3.054 0 3.92-2.882 6.225-4.841 2.998-2.536 5.246-3.343 8.531-5.534 2.363-1.556 2.537-3.805 4.842-5.534 2.075-1.556 4.784-0.288 6.456-2.305 3.746-4.438 5.764-8.012 5.764-13.835 0-4.841-3.458-7.148-3.458-11.989 0-2.132 1.094-4.381 3.228-4.381 1.326 0 1.672 1.614 2.998 1.614 3.633 0 4.496-3.458 6.917-6.225 0.866-1.038 2.479-0.634 2.998-1.845 1.729-3.746 0.461-6.628 2.305-10.375l-0.231-0.922c-1.152-0.172-1.728-0.403-2.766-0.922-1.094-1.901-2.42-2.939-3.458-4.842-0.865-1.614-1.095-3.919-2.998-3.919-1.153 0-1.614 0.922-2.767 0.922-1.614 0-1.844-1.729-3.228-2.536 0.749-1.556 2.305-1.96 2.305-3.632v-4.957c0-2.94-1.845-4.496-1.845-7.436 0-1.672 0.923-2.536 0.923-4.208 0-0.635-0.173-1.038-0.23-1.672h-3.229c0-4.9-4.093-8.359-8.992-8.763l-17.754 3.92c-9.799-0.749-11.874-12.912-21.673-12.912-1.729 0-1.442 2.364-2.075 3.92-3.805-0.634-6.917-0.288-9.222-3.228-1.038-1.325-0.404-3.285-1.845-4.151-5.822-3.688-10.606-2.421-16.831-5.533 2.767-5.13 8.3-6.802 8.3-12.682 0-1.556-0.461-2.478 0-3.92 3.977 0.75 1.556 8.532 5.534 8.532 2.708 0 3.574-2.825 4.612-5.303 1.901-4.381 4.899-6.514 9.453-7.839 1.384-0.403 2.421 0.403 3.689-0.231 1.729-0.865 1.786-3.055 3.689-3.458 3.458-0.693 6.686-2.652 6.686-6.225 0-2.824-3.228-3.632-3.228-6.456 0-1.672 1.96-1.787 3.458-2.536-0.058-0.692-0.231-1.326-0.231-2.018 0-0.403 0.231-0.577 0.231-0.98 6.397 0 9.511-4.15 15.909-4.15 0.979 0 1.325 0.922 2.305 0.922 0.923 0 0.923-1.614 1.845-1.614 2.075 0 2.998 1.614 5.073 1.614 1.614 0 2.708-0.346 4.15-0.922 2.421 5.821 7.32 8.992 13.66 8.992 0.691 0 1.588-0.116 2.28-0.232 3.936-0.311 12.021-1.459 13.979 2.135 0.927 1.702 1.323 7.212 1.575 9.376 0.386 3.296 2.783 10.951 6.021 12.626 3.996 2.068 13.46 5.98 17.88 3.528l6.303-0.381c1.268-2.248 4.012-1.344 5.626-3.304s-0.98-5.13 1.153-6.456c3.285-2.017 6.628-2.248 8.07-5.764 1.901 3.862 1.728 6.571 3.228 10.606 0.518 1.442 0.749 3.228 2.305 3.228 2.132 0 3.229-0.922 5.361-0.922h9.338c11.528 0 17.984-2.075 29.341-3.919 10.087-1.672 15.851-2.076 25.593-5.303-1.384-2.133-2.075-3.747-4.151-5.303-0.923-1.269-1.845-2.076-1.845-3.632v-5.649c0-8.3-0.691-13.2-2.997-21.155-0.807-2.939-4.381-3.574-4.381-6.686 0-4.323 7.377-3.978 7.377-8.301 0-1.21-1.499-1.269-2.305-2.076-2.767-2.767-5.534-4.726-5.534-8.703v-3.748c0-2.939-2.767-4.092-5.303-5.533-2.767-1.615-4.438-2.478-7.377-3.689 3.112-4.15 7.436-3.574 12.45-5.073 4.958-1.498 7.263-3.919 12.221-5.533l1.844 0.922c2.074-4.151 4.381-6.456 4.381-11.068 0-2.075-2.767-2.536-2.767-4.612 0-4.784 5.303-6.282 5.303-11.067 0-2.132-2.709-2.248-4.381-3.458l6.456-12.451c-0.866-2.076-2.767-2.306-4.612-3.689l0.231-0.922c5.648-2.305 6.743-6.744 11.527-10.837 3.344-2.821 5.98-3.802 8.977-6.493v-1.622c-2.213-2.162-3.29-4.543-6.441-5.949-4.265-1.901-8.011-1.614-10.605-5.534-3.458 2.595-5.073 6.225-9.454 6.225-1.153 0-1.038-1.555-1.844-2.305-1.094-1.038-3.458-0.518-3.458-2.075 0-1.729 1.326-2.477 2.536-3.689l2.306-4.841-4.612-4.381c0.749-2.363 3.228-3.054 3.228-5.534 0-2.305-2.074-3.228-2.074-5.534 0-2.766 1.268-4.611 3.458-6.224 1.211-0.865 2.997-1.211 2.997-2.768 0-1.728-1.499-2.305-2.536-3.688-2.017-2.709-2.824-4.496-4.612-7.378-2.074-3.401-1.959-6.11-4.15-9.453-0.749-1.153-1.094-2.767-2.497-3.211-1.966-0.378-3.598-0.248-5.977-0.248-3.929 0-6.204-2.68-8.236-5.754h-1402c-0.584 0.776-1.496 1.168-3.182 0.767z" fill="#fff"/>
</svg>